DataType=double
version=3
OpenSimVersion=4.5
endheader
time	ground_force_1_vx	ground_force_1_vy	ground_force_1_vz	ground_force_1_px	ground_force_1_py	ground_force_1_pz	ground_moment_1_mx	ground_moment_1_my	ground_moment_1_mz	ground_force_2_vx	ground_force_2_vy	ground_force_2_vz	ground_force_2_px	ground_force_2_py	ground_force_2_pz	ground_moment_2_mx	ground_moment_2_my	ground_moment_2_mz
0	4.908273922	658.4854501999999	25.96199006	0.8076506260422924	0	0.254876446341871	-112.8981094	-4.178723405	-22.85521953	0	0	0	0.8089	0	0.745900015	0	0	0
0.005	4.626406675	659.3587865	26.80350432	0.8076506260422924	0	0.254876446341871	-113.3757871	-2.271292607	-25.61519235	0	0	0	0.8089	0	0.745900015	0	0	0
0.01	5.029074147	660.7734358	27.77806046	0.8076506260422924	0	0.254876446341871	-113.8741361	-0.516634296	-28.77383676	0	0	0	0.8089	0	0.745900015	0	0	0
0.015	6.277326643	662.6693074999999	28.73296581	0.8076506260422924	0	0.254876446341871	-114.3842372	0.992576101	-32.25578123	0	0	0	0.8089	0	0.745900015	0	0	0
0.02	8.202590984	664.8958568	29.47566055	0.8076506260422924	0	0.254876446341871	-114.9051812	2.242380356	-36.08064535	0	0	0	0.8089	0	0.745900015	0	0	0
0.025	10.56868828	667.3109286	29.96667961	0.8076506260422924	0	0.254876446341871	-115.4337257	3.281085582	-40.1465232	0	0	0	0.8089	0	0.745900015	0	0	0
0.03	13.26149821	669.8961724	30.36071561	0.8076506260422924	0	0.254876446341871	-115.961637	4.123715793	-44.24679627	0	0	0	0.8089	0	0.745900015	0	0	0
0.035	16.1316851	672.623684	30.82442468	0.8076506260422924	0	0.254876446341871	-116.4849781	4.828000984	-48.33977799	0	0	0	0.8089	0	0.745900015	0	0	0
0.04	19.02539671	675.3538783	31.34889533	0.8076506260422924	0	0.254876446341871	-117.0083677	5.470778784	-52.54883896	0	0	0	0.8089	0	0.745900015	0	0	0
0.045	21.9998475	677.9954119	31.80599415	0.8076506260422924	0	0.254876446341871	-117.5348834	6.083588577	-56.87321681	0	0	0	0.8089	0	0.745900015	0	0	0
0.05	25.13628041	680.6044842	32.17020587	0.8076506260422924	0	0.254876446341871	-118.0569058	6.711112606	-61.20261162	0	0	0	0.8089	0	0.745900015	0	0	0
0.055	28.31853175	683.2338473999999	32.59582686	0.8076506260422924	0	0.254876446341871	-118.5627128	7.369464329	-65.50578187000001	0	0	0	0.8089	0	0.745900015	0	0	0
0.06	31.4887822	685.749683	33.21191643	0.8076506260422924	0	0.254876446341871	-119.0440181	8.052271375	-69.79731594	0	0	0	0.8089	0	0.745900015	0	0	0
0.065	34.81968175	688.0129705000001	33.94937852	0.8076506260422924	0	0.254876446341871	-119.5016099	8.781351426000001	-74.04064687	0	0	0	0.8089	0	0.745900015	0	0	0
0.07000000000000001	38.37442298	690.1505654	34.59224229	0.8076506260422924	0	0.254876446341871	-119.9380998	9.550290781999999	-78.24057709	0	0	0	0.8089	0	0.745900015	0	0	0
0.075	41.98193527	692.3032514	35.00856177	0.8076506260422924	0	0.254876446341871	-120.353074	10.36110571	-82.43293077	0	0	0	0.8089	0	0.745900015	0	0	0
0.08	45.57039779	694.4161048	35.25151957	0.8076506260422924	0	0.254876446341871	-120.7366607	11.20569449	-86.5841853	0	0	0	0.8089	0	0.745900015	0	0	0
0.08500000000000001	49.24949881	696.3262334	35.48203939	0.8076506260422924	0	0.254876446341871	-121.0822059	12.05484951	-90.64019931	0	0	0	0.8089	0	0.745900015	0	0	0
0.09	53.01513697	697.9683889	35.77291271	0.8076506260422924	0	0.254876446341871	-121.3892473	12.91990973	-94.65732453	0	0	0	0.8089	0	0.745900015	0	0	0
0.095	56.74562798	699.3911356	36.02842489	0.8076506260422924	0	0.254876446341871	-121.6549846	13.81750235	-98.70758300999999	0	0	0	0.8089	0	0.745900015	0	0	0
0.1	60.42926596	700.5713233	36.15412046	0.8076506260422924	0	0.254876446341871	-121.8738954	14.74940929	-102.746235	0	0	0	0.8089	0	0.745900015	0	0	0
0.105	64.14966901	701.3642517	36.2075152	0.8076506260422924	0	0.254876446341871	-122.0266546	15.7114914	-106.6685074	0	0	0	0.8089	0	0.745900015	0	0	0
0.11	67.88969468000001	701.6125337	36.38757396	0.8076506260422924	0	0.254876446341871	-122.0953287	16.69273498	-110.4639538	0	0	0	0.8089	0	0.745900015	0	0	0
0.115	71.60697121	701.3122974	36.78089152	0.8076506260422924	0	0.254876446341871	-122.0691365	17.67895695	-114.1540043	0	0	0	0.8089	0	0.745900015	0	0	0
0.12	75.36885196999999	700.5056971	37.21589842	0.8076506260422924	0	0.254876446341871	-121.9351692	18.67552718	-117.7178343	0	0	0	0.8089	0	0.745900015	0	0	0
0.125	79.24123779999999	699.09474	37.49320557	0.8076506260422924	0	0.254876446341871	-121.6898713	19.68426581	-121.1328659	0	0	0	0.8089	0	0.745900015	0	0	0
0.13	83.16889965	697.0115109	37.58202654	0.8076506260422924	0	0.254876446341871	-121.3209271	20.68711945	-124.4607	0	0	0	0.8089	0	0.745900015	0	0	0
0.135	87.11837401	694.2236348	37.64974436	0.8076506260422924	0	0.254876446341871	-120.8311383	21.67058087	-127.7367761	0	0	0	0.8089	0	0.745900015	0	0	0
0.14	91.15783774000001	690.7287877	37.7535898	0.8076506260422924	0	0.254876446341871	-120.2215857	22.61235618	-130.8876202	0	0	0	0.8089	0	0.745900015	0	0	0
0.145	95.27978040000001	686.4543674	37.75366668	0.8076506260422924	0	0.254876446341871	-119.4934407	23.51610743	-133.8474166	-1.927236064	11.90877516	-1.252246009	0.8089	0	0.745900015	2.316268305	0.379943451	2.476127956
0.15	99.39489879	681.3138484	37.47756639	0.8076506260422924	0	0.254876446341871	-118.6419655	24.3881171	-136.6153439	1.838868244	24.40382715	-0.286326241	0.8089	0	0.745900015	4.869774914	-0.568214474	4.59686512
0.155	103.5140504	675.2062595	36.88789041	0.8076506260422924	0	0.254876446341871	-117.6348727	25.20854122	-139.1362555	7.38632307	42.79655303	1.795319431	0.8089	0	0.745900015	8.603902445999999	-1.983385628	7.563212531
0.16	107.678893	667.9061668000001	36.12337394	0.8076506260422924	0	0.254876446341871	-116.4283781	25.97265376	-141.2791891	14.2561878	67.77117263	5.355957502	0.8089	0	0.745900015	13.63128022	-3.746031069	11.40585522
0.165	111.7783836	659.1223608	35.24161803	0.8076506260422924	0	0.254876446341871	-114.9528737	26.66460052	-142.9210443	20.73251076	99.19617359	10.50579029	0.8089	0	0.745900015	19.89285457	-5.582645185	16.11096388
0.17	115.648494	648.4808124	34.19778868	0.8076506260422924	0	0.254876446341871	-113.1456289	27.28457234	-143.9615038	24.48889185	135.7686793	16.89084037	0.8089	0	0.745900015	27.12785147	-7.069078813	21.50497234
